<svg width="0" height="0" class="hidden">
  <symbol id="icon_money-bag" version="1.1" xml:space="preserve" xmlns="http://www.w3.org/2000/svg" xmlns:xlink="http://www.w3.org/1999/xlink" viewBox="0 0 30 30">
    <path d="M19.999,2h-9.998C9.294,2,8.81,2.715,9.073,3.371L10,6h10l0.927-2.629C21.19,2.715,20.706,2,19.999,2z"></path>
    <path d="M20,8H10c0,0-7,6-7,13c0,4,3,6,5,6s7,0,7,0s5,0,7,0s5-2,5-6C27,14,20,8,20,8z M16,21.898V23.5h-2v-1.597  c-1.471-0.276-2.396-1.18-2.45-2.501h1.732c0.083,0.694,0.783,1.139,1.792,1.139c0.931,0,1.59-0.451,1.59-1.098  c0-0.546-0.427-0.86-1.477-1.086l-1.115-0.237c-1.56-0.326-2.326-1.139-2.326-2.444c0-1.313,0.869-2.249,2.254-2.557V11.5h2v1.616  c1.35,0.302,2.252,1.222,2.296,2.465h-1.685c-0.083-0.676-0.712-1.127-1.578-1.127c-0.896,0-1.489,0.415-1.489,1.068  c0,0.528,0.409,0.831,1.412,1.044l1.032,0.22c1.721,0.362,2.462,1.104,2.462,2.432C18.45,20.648,17.532,21.607,16,21.898z"></path>
    <path d="M18,4h-6c0-1.657,1.343-3,3-3S18,2.343,18,4z"></path>
  </symbol>
  <symbol id="icon_binary-income" version="1.1" xmlns="http://www.w3.org/2000/svg" xmlnsCc="http://creativecommons.org/ns#" xmlnsDc="http://purl.org/dc/elements/1.1/" xmlnsInkscape="http://www.inkscape.org/namespaces/inkscape" xmlnsRdf="http://www.w3.org/1999/02/22-rdf-syntax-ns#" xmlnsSodipodi="http://sodipodi.sourceforge.net/DTD/sodipodi-0.dtd" xmlnsSvg="http://www.w3.org/2000/svg" viewBox="0 0 16.933333 16.933334">
    <defs id="defs2"></defs>
    <g id="layer1">
      <path d="M 7.2822421,6.9609094e-4 C 7.0896707,-0.00660675 6.9072619,0.0444113 6.7871818,0.11334952 6.5272883,0.24735232 6.3492184,0.51999376 6.3494825,0.89933976 6.3535835,1.3010987 6.4994097,1.6353359 6.629052,1.9240726 6.6796914,2.0368571 6.7268291,2.143003 6.7665113,2.2418793 6.4624376,2.3540101 6.1606327,2.5243726 5.8787102,2.6857753 5.6452808,2.8194157 5.4323468,2.950713 5.2658279,3.0449224 5.1829704,3.0921932 5.079635,3.1412628 5.0270827,3.1648108 5.0227832,3.0220973 4.9053313,2.9074284 4.7614659,2.9079814 H 3.9687495 C 3.9682465,2.7625621 3.8506033,2.6449491 3.7051997,2.6444344 H 0.26354977 C 0.11814528,2.6449501 5.1499023e-4,2.7625621 0,2.9079814 v 4.4989029 c -5.6198022e-4,0.1461813 0.11738332,0.265097 0.26354977,0.265614 H 3.7051997 C 3.8513663,7.6719691 3.9693104,7.5530656 3.9687495,7.4068843 H 4.7614659 C 4.9076323,7.4074399 5.0270824,7.2895187 5.0275994,7.1433372 H 5.2911493 C 5.5452982,7.1424641 5.83652,7.3574527 6.0166862,7.4843979 5.9669683,7.5578883 5.9178934,7.6310025 5.8673413,7.7055708 5.2035701,8.6846593 4.4979161,9.770424 4.4979161,11.243302 c 0,0.528156 0.1110226,1.004252 0.3317626,1.408685 -0.0063,0.015 -0.012271,0.03036 -0.017571,0.04599 -0.7605034,-0.0038 -1.3640359,-10e-5 -2.0417356,0 0.2518222,-0.280816 0.4056599,-0.65114 0.4056599,-1.056255 0,-0.873673 -0.7144406,-1.588001 -1.5880165,-1.588 C 0.71444164,10.053725 0,10.76805 0,11.641723 0,12.081158 0.18050804,12.479517 0.471289,12.767224 0.19457298,12.89208 0,13.172315 0,13.49327 v 0.792708 C 0,14.48855 0.07784353,14.675004 0.20463865,14.816173 0.07787858,14.956934 0,15.142763 0,15.345334 v 0.792708 c 0,0.435193 0.35782079,0.794948 0.79271638,0.795292 1.38148112,5.7e-5 3.16260022,1e-6 4.23488302,0 0.4348956,-3.44e-4 0.7927165,-0.360099 0.7927165,-0.795292 v -0.792708 c 0,-0.202571 -0.077884,-0.3884 -0.2046388,-0.529161 0.090328,-0.100572 0.1559195,-0.224273 0.1860351,-0.360181 0.27681,0.262751 0.6205587,0.584668 0.9854696,0.912596 0.419074,0.376601 0.857233,0.754565 1.2345497,1.04282 0.4204972,0.308729 0.7295829,0.519255 0.9741007,0.521926 0.4556445,0 1.2319538,-0.136835 1.9606038,-0.269748 0.364329,-0.06645 0.710882,-0.132086 0.982369,-0.181383 0.165429,-0.03367 0.342797,-0.05759 0.496093,-0.07855 l 0.26355,0.001 c 5.29e-4,0.147213 0.119971,0.265128 0.266134,0.26458 h 0.792716 c 5.55e-4,0.145996 0.119379,0.264628 0.265617,0.264066 h 2.644283 c 0.146929,5.56e-4 0.266698,-0.119186 0.266133,-0.266131 v -4.232772 c 5.56e-4,-0.146946 -0.119204,-0.26618 -0.266133,-0.265614 h -2.644283 c -0.14693,-5.55e-4 -0.266182,0.118668 -0.265617,0.265614 h -0.792716 c -0.146164,-5.55e-4 -0.265617,0.117365 -0.266134,0.263547 v 0.156578 c -0.222997,-0.061 -0.410175,-0.127624 -0.59893,-0.195851 0.22319,-0.405872 0.33538,-0.884314 0.33538,-1.415403 0,-1.4522145 -0.68348,-2.5260911 -1.340486,-3.4958737 0.17199,-0.1459231 0.282153,-0.3629545 0.282153,-0.6040911 0,-0.2024623 -0.07749,-0.389007 -0.204122,-0.5301945 0.126489,-0.1407019 0.204122,-0.3263173 0.204122,-0.5286444 0,-0.2024303 -0.07752,-0.3884982 -0.204122,-0.5296778 0.126606,-0.1407278 0.204122,-0.3262141 0.204122,-0.5286444 0,-0.3728688 -0.262928,-0.6902919 -0.611849,-0.773588 0.215571,-0.4415259 -0.0235,-0.8288128 -0.290421,-1.0257665 -0.0034,-0.00273 -0.158198,-0.1249532 -0.381889,-0.2862844 0.02605,-0.2631214 0.123654,-0.5893212 0.229443,-0.9172469 0.123665,-0.3833353 0.261483,-0.7645277 0.261483,-1.13480247 0,-0.37155834 -0.181417,-0.636577 -0.456819,-0.77927238 C 9.8934422,-0.01154072 9.6067122,-0.01720671 9.4330148,0.02911783 9.0837035,0.1069642 8.8513348,0.33292423 8.6242787,0.53140745 8.5673946,0.58113311 8.5111151,0.62991978 8.4521961,0.67713346 8.1590658,0.43846705 7.927879,0.15006454 7.4765451,0.02911783 7.4121583,0.01231451 7.3464318,0.00313043 7.2822421,6.9609094e-4 Z M 9.6417875,0.52985716 c 0.091957,-0.00334 0.1828696,0.0202737 0.2444294,0.0521927 0.06936,0.0353787 0.1679461,0.10774727 0.1679481,0.306438 0,0.22245964 -0.111513,0.58667244 -0.2361608,0.97305694 C 9.7401997,2.1027226 9.6572566,2.3541015 9.6061309,2.6082613 9.4371405,2.4997764 9.2609227,2.3945971 9.0893666,2.3085412 8.8761061,2.2015656 8.6824817,2.1152734 8.4630482,2.1152734 8.0782163,2.1160486 7.6696449,2.1117301 7.2920605,2.1188907 7.2209931,1.9415376 7.1480126,1.7886806 7.07812,1.6326206 7.3198536,1.6660083 7.6134302,1.635899 7.9814241,1.5370202 8.4356263,1.3867395 8.7371475,1.1331139 8.972061,0.92776153 9.2069752,0.72240946 9.3731724,0.58144658 9.5503202,0.54277615 c 0.029737,-0.007843 0.060815,-0.0118058 0.091467,-0.012919 z M 14.283364,2.1173404 c -0.15114,0.00423 -0.259956,0.1203943 -0.260449,0.263547 v 0.263547 c -5.82e-4,0.1461873 0.117378,0.2651112 0.26355,0.2656141 0.146935,5.821e-4 0.266196,-0.118663 0.265617,-0.2656141 V 2.3808874 C 14.551579,2.2346996 14.432896,2.1167641 14.283364,2.1173404 Z m -6.9086212,0.527094 h 1.0883054 c 0.3529396,0.020531 1.2292252,0.652895 1.6898188,1.0019955 0.161147,0.1209678 0.192381,0.2538187 0.145728,0.3560468 -0.04665,0.1022287 -0.195559,0.2284074 -0.5136637,0.2284074 -0.2064652,0 -0.4461383,-0.072548 -0.6821289,-0.1581282 C 8.8667714,3.9871713 8.6486973,3.8822156 8.3927683,3.8789713 8.2969664,3.8778865 8.2079389,3.9292048 8.1602244,4.012295 8.0015025,4.2872429 7.8773661,4.382136 7.7364776,4.4360374 7.5955891,4.4899375 7.4052254,4.4964983 7.1406484,4.4964983 6.9944765,4.4959163 6.8755339,4.6138573 6.8750317,4.7600452 6.8744761,4.90405 6.988998,5.0215539 7.1318635,5.0256594 7.0650136,5.7535853 6.7301181,6.391 6.3102083,7.0425693 5.987636,6.8296897 5.7144542,6.6195849 5.2911493,6.6136594 H 5.0275994 V 3.7032734 C 5.144572,3.7024532 5.204117,3.6685711 5.2792637,3.6345444 5.3553414,3.6000979 5.4354371,3.5566799 5.5252433,3.5058715 5.7048557,3.4042548 5.9176926,3.273519 6.1427768,3.1446571 6.5929446,2.8869329 7.1135601,2.6502254 7.3747428,2.6444344 Z M 15.33808,2.9064312 c -0.146794,0.00757 -0.256873,0.1239949 -0.256315,0.265614 v 0.2635471 c 5.03e-4,0.1454254 0.11814,0.263047 0.26355,0.2635471 0.146172,5.82e-4 0.265115,-0.1173595 0.265616,-0.2635471 V 3.1720452 C 15.611514,3.025094 15.491991,2.9058515 15.33808,2.9064312 Z m -2.113049,0.00362 c -0.145623,0.00408 -0.259957,0.1209112 -0.260449,0.2640644 v 0.265614 c 5.02e-4,0.1454256 0.11814,0.263047 0.26355,0.263547 0.14617,5.821e-4 0.265113,-0.1173592 0.265616,-0.263547 V 3.1741124 C 13.493246,3.0279245 13.374562,2.9094723 13.225031,2.9100485 Z M 3.9687495,3.4376594 H 4.4979161 V 6.8772065 H 3.9687495 Z M 14.286465,3.9652701 c -0.873576,0 -1.588017,0.7143299 -1.588017,1.588 0,0.8736703 0.714441,1.5879999 1.588017,1.5879999 0.873575,0 1.588016,-0.7143296 1.588016,-1.5879999 0,-0.8736701 -0.714441,-1.588 -1.588016,-1.588 z m -4.234367,0.7947751 h 0.531234 c 0.151153,0 0.26355,0.1149639 0.26355,0.2661309 0,0.1511671 -0.112397,0.2635461 -0.26355,0.2635471 h -0.531234 c -0.1511528,0 -0.2635494,-0.11238 -0.2635494,-0.2635471 0,-0.151167 0.1123966,-0.2661309 0.2635494,-0.2661309 z m 0,1.0588391 h 0.531234 c 0.151153,0 0.26355,0.1144467 0.26355,0.265614 0,0.151167 -0.112397,0.263546 -0.26355,0.2635471 h -0.531234 c -0.1511528,0 -0.2635494,-0.1123803 -0.2635494,-0.2635471 0,-0.1511673 0.1123966,-0.265614 0.2635494,-0.265614 z m 0,1.0583222 h 0.531234 c 0.151153,0 0.26355,0.1149634 0.26355,0.2661307 0,0.151167 -0.112397,0.2635471 -0.26355,0.2635471 h -0.531234 c -0.1511528,0 -0.2635494,-0.1123806 -0.2635494,-0.2635471 0,-0.151167 0.1123966,-0.2661318 0.2635494,-0.2661307 z M 8.4599476,7.6745652 c 0.15289,5.027e-4 0.2703332,0.1194263 0.2697511,0.2656142 v 0.2635468 h 0.2661335 c 0.4351488,0 0.7927164,0.3595909 0.7927164,0.7947754 C 9.7880459,9.143927 9.6704085,9.2620627 9.5249988,9.2625651 9.3788266,9.2631472 9.2598847,9.1446897 9.259382,8.9985016 9.259382,8.847342 9.1469844,8.7328873 8.9958322,8.7328873 H 8.7296987 v 1.0593559 h 0.2661335 c 0.4351488,0 0.7927164,0.3595848 0.7927164,0.7947748 v 0.529161 c 0,0.435197 -0.3575734,0.793225 -0.7927164,0.793225 H 8.7296987 v 0.263547 C 8.7302808,12.31914 8.6128378,12.438062 8.4666656,12.438565 8.3197301,12.439147 8.2004668,12.319903 8.2010488,12.172951 V 11.909404 H 7.937499 c -0.4351427,0 -0.7927164,-0.358033 -0.7927164,-0.793225 -5.821e-4,-0.146187 0.1173776,-0.265112 0.2635498,-0.265614 0.1469358,-5.82e-4 0.2661988,0.118664 0.2656168,0.265614 0,0.151175 0.1123915,0.263547 0.2635498,0.263547 H 8.2010488 V 10.321404 H 7.937499 c -0.4351427,0 -0.7927164,-0.3580283 -0.7927164,-0.7932246 V 8.9985016 c 2e-7,-0.4351913 0.3575676,-0.7947754 0.7927164,-0.7947754 H 8.2010488 V 7.9401794 C 8.2004932,7.7978203 8.3126493,7.681172 8.4599476,7.6745652 Z M 1.5807819,8.2037262 C 1.4332255,8.2103381 1.3218378,8.3269811 1.3223997,8.4693405 V 8.7328873 C 1.3218203,8.8798385 1.4410812,8.9990813 1.5880166,8.9985016 1.734188,8.9979989 1.8521433,8.879075 1.8515663,8.7328873 V 8.4693405 C 1.8521431,8.3231529 1.7339301,8.204229 1.5807819,8.2037262 Z M 7.937499,8.7328873 c -0.1511522,0 -0.2635498,0.1144613 -0.2635498,0.2656143 v 0.5296778 c 0,0.1511676 0.1123915,0.2640638 0.2635498,0.2640638 H 8.2010488 V 8.7328873 Z M 2.6396318,8.9948842 C 2.4930455,9.0014247 2.3812199,9.1173284 2.3807329,9.2589481 V 9.524562 C 2.3812357,9.6707499 2.5001774,9.7886854 2.6463497,9.7881091 2.7917592,9.7876064 2.9093995,9.6699877 2.9098996,9.524562 V 9.2589481 C 2.9093969,9.1135227 2.7917592,8.995384 2.6396318,8.9948842 Z m -2.11408256,0.00362 C 0.37916181,9.0015596 0.26404376,9.1186608 0.26354977,9.2625646 V 9.5281789 C 0.26405169,9.6743681 0.38299412,9.7928195 0.5291666,9.7922432 0.67457605,9.7917405 0.79221638,9.6736048 0.79271638,9.5281794 V 9.2625651 C 0.79221627,9.11714 0.67431763,8.9990001 0.52554924,8.9985016 Z M 8.7296987,10.321404 v 1.058322 h 0.2661335 c 0.1511583,0 0.2635498,-0.112382 0.2635498,-0.263547 v -0.529161 c 0,-0.151154 -0.1123976,-0.265614 -0.2635498,-0.265614 z m -3.0788815,2.376057 c 0.064968,0.0013 0.1349399,0.01086 0.2025716,0.02997 l 2.4287919,0.685739 c -0.080158,0.165665 -0.104521,0.359121 -0.053743,0.548798 0.1125947,0.420482 0.5516212,0.674993 0.9720338,0.562233 L 10.73371,14.112345 c 0.141394,-0.03763 0.225486,-0.183187 0.187586,-0.324525 -0.03763,-0.141408 -0.182688,-0.224973 -0.324011,-0.187067 L 9.0640454,14.01261 C 8.9181349,14.05174 8.778718,13.97143 8.7395176,13.825027 c -0.039179,-0.146355 0.041691,-0.284876 0.1963706,-0.327109 0,0 0.4014908,-0.137528 0.874365,-0.272332 0.4728738,-0.134804 1.0447608,-0.263547 1.3027618,-0.263547 0.241337,0 0.548982,0.09931 0.867131,0.214455 0.234623,0.0849 0.472415,0.179426 0.718302,0.22324 v 2.474758 h -0.26355 c -0.20396,0.01061 -0.405929,0.05368 -0.589628,0.08578 -0.275452,0.05001 -0.622831,0.118006 -0.984436,0.183966 C 10.137622,16.27616 9.333763,16.403651 8.9958327,16.403651 8.7833776,16.320142 8.5273443,16.126353 8.3416087,15.989732 7.9845602,15.716961 7.5539728,15.347285 7.1406484,14.975851 6.5968874,14.489681 6.0685969,13.981253 5.5448804,13.4757 5.3141376,13.276923 5.2506585,13.102338 5.3123366,12.872126 5.3552046,12.731482 5.5074488,12.69538 5.6508172,12.697461 Z m 7.5773148,0.266648 h 0.529166 v 3.175999 H 13.228132 Z M 0.79271638,13.227656 H 1.3223997 v 0.525027 c -5.794e-4,0.146951 0.1186815,0.266194 0.2656169,0.265614 0.1461714,-5.03e-4 0.2641267,-0.119426 0.2635497,-0.265614 v -0.525027 h 0.7947834 v 0.525027 c -5.768e-4,0.146188 0.1173774,0.265112 0.2635499,0.265614 0.1469355,5.82e-4 0.2667132,-0.118663 0.2661335,-0.265614 v -0.525027 h 0.7927164 v 0.525027 c -5.821e-4,0.146188 0.1173774,0.265112 0.2635498,0.265614 0.1469356,5.82e-4 0.266197,-0.118663 0.2656168,-0.265614 v -0.525027 h 0.2821532 c 0.075358,0.273859 0.1577269,0.410904 0.51108,0.738448 v 0.319874 c 0,0.151165 -0.1121445,0.266012 -0.2635499,0.266131 H 0.7937499 C 0.64214663,14.551156 0.5291666,14.436589 0.5291666,14.285978 V 13.49327 c 0,-0.151166 0.11239636,-0.265614 0.26354978,-0.265614 z m 0,1.854131 c 0.17279057,8e-6 0.34657532,-4e-6 0.52968332,0 v 0.529161 c 5.028e-4,0.146187 0.1194445,0.264123 0.2656169,0.263547 0.1454094,-5.03e-4 0.2630497,-0.118122 0.2635497,-0.263547 v -0.529161 h 0.7947834 v 0.529161 c 5.027e-4,0.145425 0.1181394,0.263047 0.2635499,0.263547 0.1461714,5.82e-4 0.2656315,-0.11736 0.2661335,-0.263547 v -0.529161 h 0.7927164 v 0.529161 c 5.027e-4,0.145425 0.1181394,0.263047 0.2635498,0.263547 0.1461715,5.82e-4 0.2651149,-0.11736 0.2656168,-0.263547 v -0.529161 h 0.5296833 c 0.1511533,0 0.2635499,0.11238 0.2635499,0.263547 v 0.792708 c 0,0.151164 -0.1121445,0.265493 -0.2635499,0.265614 -1.0718058,10e-7 -2.8516391,5.6e-5 -4.2338495,0 C 0.64214663,16.402704 0.5291666,16.28865 0.5291666,16.138042 v -0.792708 c 0,-0.151167 0.11239636,-0.263547 0.26354978,-0.263547 z" id="path866"></path>
    </g>
  </symbol>
  <symbol id="icon_total-money" version="1.1" xml:space="preserve" xmlns="http://www.w3.org/2000/svg" xmlns:xlink="http://www.w3.org/1999/xlink" viewBox="0 0 64 64">
    <g>
      <path d="M36.10803,53.86669c-0.05322-0.01532-0.104,0.03027-0.09399,0.08441l0.47864,2.60132   c-1.46912,0.26453-2.98096,0.4021-4.49268,0.4021c-13.70178,0-24.83789-11.07727-24.83789-24.69373   c0-6.30567,2.38477-12.30451,6.72852-16.89624l-3.09802-2.89893c-5.08899,5.38519-7.88892,12.41034-7.88892,19.79517   c0,15.94403,13.05225,28.92572,29.09631,28.92572c1.76721,0,3.54529-0.15875,5.25928-0.47614l0.38306,2.1037   c0.00989,0.0542,0.07373,0.0791,0.11804,0.04602l8.1355-6.0791c0.03845-0.02875,0.02734-0.08881-0.0188-0.10211L36.10803,53.86669z   "></path>
      <path d="M32,3.34569c-1.29895,0-2.6084,0.08459-3.88586,0.25391l-0.3147-2.41071c-0.00708-0.05408-0.06909-0.08179-0.1145-0.05121   l-8.40259,5.65961c-0.05017,0.03387-0.04004,0.11017,0.01733,0.12982l9.58569,3.28876   c0.05176,0.0177,0.10413-0.02472,0.09717-0.07861l-0.3042-2.3374C29.7749,7.65178,30.8927,7.57768,32,7.57768   c13.70178,0,24.83777,11.07721,24.83777,24.68311c0,5.58624-1.82056,10.84448-5.28052,15.22461l3.35352,2.61328   c4.04565-5.13135,6.18555-11.29944,6.18555-17.83789C61.09631,16.31676,48.04407,3.34569,32,3.34569z"></path>
      <path d="M31.99963,12.80242c-10.58496,0-19.19727,8.6123-19.19727,19.19727c0,10.58594,8.6123,19.19824,19.19727,19.19824   c10.58594,0,19.19824-8.6123,19.19824-19.19824C51.19788,21.41472,42.58557,12.80242,31.99963,12.80242z M31.99963,49.19793   c-9.48242,0-17.19727-7.71484-17.19727-17.19824c0-9.48242,7.71484-17.19727,17.19727-17.19727   c9.4834,0,17.19824,7.71484,17.19824,17.19727C49.19788,41.48308,41.48303,49.19793,31.99963,49.19793z"></path>
      <path d="M32,18.75395c-7.31555,0-13.24597,5.93048-13.24597,13.24603c0,7.31561,5.93042,13.24603,13.24597,13.24603   s13.24597-5.93042,13.24597-13.24603C45.24597,24.68443,39.31555,18.75395,32,18.75395z M31.99963,30.99968   c2.47754,0,4.49316,2.01563,4.49316,4.49317c0,2.1319-1.49707,3.91406-3.49316,4.37103v1.69342h-2v-1.69354   c-1.99536-0.45721-3.49219-2.2392-3.49219-4.37091h2c0,1.37402,1.11816,2.49219,2.49219,2.49219   c1.375,0,2.49316-1.11816,2.49316-2.49219c0-1.375-1.11816-2.49316-2.49316-2.49316c-2.47656,0-4.49219-2.01563-4.49219-4.49219   c0-2.13171,1.49683-3.9137,3.49219-4.37091v-1.69452h2v1.6944c1.99609,0.45697,3.49316,2.23914,3.49316,4.37103h-2   c0-1.37402-1.11816-2.49219-2.49316-2.49219c-1.37402,0-2.49219,1.11816-2.49219,2.49219S30.62561,30.99968,31.99963,30.99968z"></path>
    </g>
  </symbol>
  <symbol xmlns="http://www.w3.org/2000/svg" viewBox="0 0 24 24" id="icon_chart">
    <g>
      <path d="M0 0h24v24H0z" fill="none"></path>
      <path d="M3 12h4v9H3v-9zm14-4h4v13h-4V8zm-7-6h4v19h-4V2z"></path>
    </g>
  </symbol>
  <symbol version="1.1" xml:space="preserve" xmlns="http://www.w3.org/2000/svg" xmlns:xlink="http://www.w3.org/1999/xlink" viewBox="0 0 24 24" id="icon_logout">
    <g id="info"></g>
    <g id="icons">
      <g id="exit2">
        <path d="M12,10c1.1,0,2-0.9,2-2V4c0-1.1-0.9-2-2-2s-2,0.9-2,2v4C10,9.1,10.9,10,12,10z"></path>
        <path d="M19.1,4.9L19.1,4.9c-0.3-0.3-0.6-0.4-1.1-0.4c-0.8,0-1.5,0.7-1.5,1.5c0,0.4,0.2,0.8,0.4,1.1l0,0c0,0,0,0,0,0c0,0,0,0,0,0    c1.3,1.3,2,3,2,4.9c0,3.9-3.1,7-7,7s-7-3.1-7-7c0-1.9,0.8-3.7,2.1-4.9l0,0C7.3,6.8,7.5,6.4,7.5,6c0-0.8-0.7-1.5-1.5-1.5    c-0.4,0-0.8,0.2-1.1,0.4l0,0C3.1,6.7,2,9.2,2,12c0,5.5,4.5,10,10,10s10-4.5,10-10C22,9.2,20.9,6.7,19.1,4.9z"></path>
      </g>
    </g>
  </symbol>
  <symbol id="icon_report" version="1.1" xml:space="preserve" xmlns="http://www.w3.org/2000/svg" xmlns:xlink="http://www.w3.org/1999/xlink" viewBox="0 0 64 64">
    <g>
      <path d="M17,31c-6.617,0-12,5.383-12,12s5.383,12,12,12s12-5.383,12-12S23.617,31,17,31z M26.949,42H18v-8.949   C22.717,33.521,26.479,37.283,26.949,42z M7,43c0-5.176,3.954-9.446,9-9.949v19.899C10.954,52.446,7,48.176,7,43z M18,52.949V44   h8.949C26.479,48.717,22.717,52.479,18,52.949z"></path>
      <path d="M47.954,29.741l2.021,0.897C50.514,30.878,51.087,31,51.678,31c1.12,0,2.173-0.437,2.965-1.229L56,28.414   c0.645-0.645,1-1.502,1-2.414s-0.355-1.77-1-2.414L54.414,22c-1.289-1.289-3.539-1.289-4.828,0l-0.639,0.639   C48.714,22.872,48.404,23,48.074,23h-0.148c-0.33,0-0.64-0.128-0.873-0.361l-0.691-0.691C46.128,21.714,46,21.404,46,21.074   c0-0.377,0.169-0.729,0.463-0.964l0.575-0.459C47.649,19.162,48,18.432,48,17.648c0-0.676-0.273-1.336-0.751-1.813L45.414,14   c-1.289-1.289-3.539-1.289-4.828,0l-1.357,1.357C38.437,16.149,38,17.202,38,18.345c0,0.57,0.114,1.126,0.339,1.651   C40.207,24.354,43.622,27.815,47.954,29.741z M40.643,16.771L42,15.414C42.268,15.147,42.622,15,43,15s0.732,0.147,1,0.414   l1.835,1.835C45.939,17.354,46,17.5,46,17.648c0,0.173-0.077,0.333-0.211,0.44l-0.574,0.459C44.442,19.165,44,20.086,44,21.074   c0,0.864,0.336,1.677,0.947,2.287l0.691,0.691C46.249,24.664,47.062,25,47.926,25h0.148c0.864,0,1.677-0.336,2.287-0.947L51,23.414   c0.535-0.533,1.465-0.533,2,0L54.586,25C54.853,25.268,55,25.622,55,26s-0.147,0.732-0.414,1l-1.357,1.357   c-0.632,0.632-1.623,0.818-2.441,0.453l-2.021-0.897c-3.87-1.72-6.921-4.812-8.589-8.704C40.06,18.935,40,18.644,40,18.322   C40,17.736,40.229,17.186,40.643,16.771z"></path>
      <path d="M52.287,35H60c1.654,0,3-1.346,3-3V12c0-1.654-1.346-3-3-3H49V1H9.586L1,9.586V59h24.697l6,4H60c1.654,0,3-1.346,3-3v-4   c0-1.654-1.346-3-3-3H49V37.055L52.287,35z M61,12v20c0,0.552-0.448,1-1,1h-8.287L45,37.195V33H34c-0.552,0-1-0.448-1-1V12   c0-0.552,0.448-1,1-1h26C60.552,11,61,11.448,61,12z M9,4.414V9H4.414L9,4.414z M33,59h16v2H33V59z M51,55h2v6h-2V55z M49,57H33v-2   h16V57z M31,60.132L27.803,58L31,55.868V60.132z M61,56v4c0,0.552-0.448,1-1,1h-5v-6h5C60.552,55,61,55.448,61,56z M47,53H31.697   l-6,4H3V11h8V3h36v6H34c-1.654,0-3,1.346-3,3v20c0,1.654,1.346,3,3,3h9v5.805l4-2.5V53z"></path>
      <polygon points="26,13 24,13 24,25 22,25 22,11 20,11 20,25 18,25 18,19 16,19 16,25 14,25 14,15 12,15 12,25 10,25 10,17 8,17    8,25 5,25 5,27 29,27 29,25 26,25  "></polygon>
    </g>
  </symbol>
  <symbol xmlns="http://www.w3.org/2000/svg" viewBox="0 0 64 64" id="icon_income">
    <g id="Money_asset_income_management">
      <path d="M32.4436,1.2458a16.0708,16.0708,0,1,0,16.07,16.0708A16.0708,16.0708,0,0,0,32.4436,1.2458ZM31.1853,16.1787H33.656a4.1749,4.1749,0,0,1,.0078,8.35v2.0569a1.35,1.35,0,1,1-2.6992,0V24.5292H28.1482a1.35,1.35,0,0,1,0-2.7H33.656a1.4751,1.4751,0,1,0,0-2.95H31.1853a4.3788,4.3788,0,0,1-.2207-8.7525V8.0478a1.35,1.35,0,1,1,2.6992,0v2.0561H36.739a1.35,1.35,0,0,1,0,2.7H31.1853a1.6873,1.6873,0,1,0,0,3.3746Z"></path>
      <path d="M15.1059,36.736H8.5481A1.0434,1.0434,0,0,0,7.5046,37.78V60.1611a1.0435,1.0435,0,0,0,1.0435,1.0434h6.5578A2.2745,2.2745,0,0,0,17.38,58.93V39.01A2.2745,2.2745,0,0,0,15.1059,36.736Z"></path>
      <path d="M56.3279,39.3642a3.8044,3.8044,0,0,0-3.1846-1.7158h-2.57a5.5491,5.5491,0,0,0-5.1455,3.4429A5.75,5.75,0,0,1,44.4036,42.71,8.3781,8.3781,0,0,1,37.72,46.5092l-7.6123.0005a1.35,1.35,0,0,1,0-2.7h7.5762a5.0783,5.0783,0,0,0,2.7244-.8766l0-.0457A5.2188,5.2188,0,0,0,35.19,37.6484h-5.586a7.7365,7.7365,0,0,0-5.497,2.27l-.1426.1421a7.2471,7.2471,0,0,1-3.8858,2.0127V56.9848H40.45A15.43,15.43,0,0,0,54.64,47.6381l2.0068-4.6709A3.802,3.802,0,0,0,56.3279,39.3642Z"></path>
    </g>
  </symbol>
  <symbol id="icon_structure-balance" version="1.1" xml:space="preserve" xmlns="http://www.w3.org/2000/svg" xmlns:xlink="http://www.w3.org/1999/xlink" viewBox="0 0 64 64">
    <g>
      <g id="Icon-Share-Google" transform="translate(280.000000, 380.000000)">
        <path d="M-264.2-339.9c-4.4,0-7.9-3.5-7.9-7.9c0-4.4,3.5-7.9,7.9-7.9c4.4,0,7.9,3.5,7.9,7.9     C-256.3-343.5-259.8-339.9-264.2-339.9L-264.2-339.9z M-264.2-352.8c-2.7,0-4.9,2.2-4.9,4.9c0,2.7,2.2,4.9,4.9,4.9     c2.7,0,4.9-2.2,4.9-4.9C-259.3-350.5-261.5-352.8-264.2-352.8L-264.2-352.8z" id="Fill-61"></path>
        <path d="M-232.1-356c-4.4,0-7.9-3.5-7.9-7.9s3.5-7.9,7.9-7.9s7.9,3.5,7.9,7.9S-227.8-356-232.1-356     L-232.1-356z M-232.1-368.8c-2.7,0-4.9,2.2-4.9,4.9s2.2,4.9,4.9,4.9s4.9-2.2,4.9-4.9S-229.4-368.8-232.1-368.8L-232.1-368.8z" id="Fill-62"></path>
        <path d="M-232.1-323.9c-4.4,0-7.9-3.5-7.9-7.9s3.5-7.9,7.9-7.9s7.9,3.5,7.9,7.9     S-227.8-323.9-232.1-323.9L-232.1-323.9z M-232.1-336.7c-2.7,0-4.9,2.2-4.9,4.9s2.2,4.9,4.9,4.9s4.9-2.2,4.9-4.9     S-229.4-336.7-232.1-336.7L-232.1-336.7z" id="Fill-63"></path>
        <polyline id="Fill-64" points="-238.6,-333.2 -259.2,-343.5 -257.8,-346.4 -237.1,-336.1 -238.6,-333.2    "></polyline>
        <polyline id="Fill-65" points="-257.8,-349.3 -259.2,-352.1 -238.6,-362.4 -237.1,-359.6 -257.8,-349.3    "></polyline>
      </g>
    </g>
  </symbol>
  <symbol id="icon_hamburger-menu" version="1.1" xml:space="preserve" xmlns="http://www.w3.org/2000/svg" xmlns:xlink="http://www.w3.org/1999/xlink" viewBox="0 0 32 32">
    <path d="M4,10h24c1.104,0,2-0.896,2-2s-0.896-2-2-2H4C2.896,6,2,6.896,2,8S2.896,10,4,10z M28,14H4c-1.104,0-2,0.896-2,2  s0.896,2,2,2h24c1.104,0,2-0.896,2-2S29.104,14,28,14z M28,22H4c-1.104,0-2,0.896-2,2s0.896,2,2,2h24c1.104,0,2-0.896,2-2  S29.104,22,28,22z"></path>
  </symbol>
  <symbol xmlns="http://www.w3.org/2000/svg" viewBox="0 0 32 32" id="icon_team-summary">
    <defs></defs>
    <title></title>
    <g id="Layer_20">
      <path d="M16,22a6,6,0,1,1,6-6A6,6,0,0,1,16,22Zm0-10a4,4,0,1,0,4,4A4,4,0,0,0,16,12Z"></path>
      <path d="M21,31H11a4,4,0,0,1-4-4V24.45a1,1,0,0,1,.63-.92l3.64-1.46A1,1,0,1,1,12,23.93l-3,1.2V27a2,2,0,0,0,2,2H21a2,2,0,0,0,2-2V25.13l-3-1.2a1,1,0,0,1,.74-1.86l3.64,1.46a1,1,0,0,1,.63.92V27A4,4,0,0,1,21,31Z"></path>
      <path d="M9,11a5,5,0,1,1,5-5A5,5,0,0,1,9,11ZM9,3a3,3,0,1,0,3,3A3,3,0,0,0,9,3Z"></path>
      <path d="M8,19.39H5a4,4,0,0,1-4-4V13.64a1,1,0,0,1,.63-.93l3.19-1.25A1,1,0,0,1,6.11,12a1,1,0,0,1-.56,1.3L3,14.32v1.07a2,2,0,0,0,2,2H8a1,1,0,0,1,0,2Z"></path>
      <path d="M23,11a5,5,0,1,1,5-5A5,5,0,0,1,23,11Zm0-8a3,3,0,1,0,3,3A3,3,0,0,0,23,3Z"></path>
      <path d="M27,19.39H24a1,1,0,0,1,0-2h3a2,2,0,0,0,2-2V14.32l-2.55-1a1,1,0,0,1-.56-1.3,1,1,0,0,1,1.29-.57l3.19,1.25a1,1,0,0,1,.63.93v1.75A4,4,0,0,1,27,19.39Z"></path>
    </g>
  </symbol>
  <symbol enable-background="new 0 0 48 48" id="icon_invest-wallet" version="1.1" xml:space="preserve" xmlns="http://www.w3.org/2000/svg" xmlns:xlink="http://www.w3.org/1999/xlink" viewBox="0 0 48 48">
    <g>
      <polygon points="32.625,11.344 29,11.344 29,2.281 19,2.281 19,11.344 15.125,11.344 23.875,21.844  "></polygon>
      <path d="M24.598,37.099v-1.637c1.846-0.321,2.857-1.541,2.857-2.97c0-1.445-0.771-2.328-2.681-3.002   c-1.365-0.514-1.927-0.852-1.927-1.381c0-0.449,0.337-0.898,1.38-0.898c1.157,0,1.896,0.369,2.312,0.546l0.466-1.814   c-0.529-0.257-1.253-0.481-2.328-0.529V24h-1.572v1.525c-1.718,0.338-2.714,1.444-2.714,2.857c0,1.557,1.173,2.359,2.89,2.938   c1.188,0.4,1.702,0.786,1.702,1.396c0,0.643-0.626,0.995-1.541,0.995c-1.045,0-1.991-0.337-2.665-0.706l-0.482,1.879   c0.61,0.353,1.653,0.642,2.729,0.689v1.524H24.598z"></path>
      <path d="M34,15.719l-2.655,3.094h8.768C40.044,19.105,40,19.406,40,19.719c0,2.209,1.791,4,4,4   c0.286,0,0.564-0.033,0.834-0.09v12.18c-0.27-0.057-0.548-0.09-0.834-0.09c-2.209,0-4,1.791-4,4c0,0.196,0.03,0.385,0.058,0.573   H7.942C7.97,40.104,8,39.916,8,39.72c0-2.209-1.791-4-4-4c-0.157,0-0.306,0.028-0.458,0.046V23.672   C3.694,23.69,3.843,23.719,4,23.719c2.209,0,4-1.791,4-4c0-0.313-0.044-0.614-0.112-0.906h8.587L14,15.719H0v28h3.99   c0.003,0,0.006,0.001,0.01,0.001s0.006-0.001,0.01-0.001H48v-28H34z"></path>
    </g>
  </symbol>
  <symbol xmlns="http://www.w3.org/2000/svg" viewBox="0 0 24 24" id="icon_withdraw-wallet">
    <path d="M12,15c-1.84,0-2-.86-2-1H8c0,.92.66,2.55,3,2.92V18h2V16.92c2-.34,3-1.63,3-2.92,0-1.12-.52-3-4-3-2,0-2-.63-2-1s.7-1,2-1,1.39.64,1.4,1h2A3,3,0,0,0,13,7.12V6H11V7.09C9,7.42,8,8.71,8,10c0,1.12.52,3,4,3,2,0,2,.68,2,1S13.38,15,12,15Z"></path>
    <path d="M5,2H2V4H4V21a1,1,0,0,0,1,1H19a1,1,0,0,0,1-1V4h2V2H5ZM18,20H6V4H18Z"></path>
  </symbol>
  <symbol xmlns="http://www.w3.org/2000/svg" viewBox="0 0 20 20" id="icon_wallet">
    <path d="M0 4c0-1.1.9-2 2-2h15a1 1 0 0 1 1 1v1H2v1h17a1 1 0 0 1 1 1v10a2 2 0 0 1-2 2H2a2 2 0 0 1-2-2V4zm16.5 9a1.5 1.5 0 1 0 0-3 1.5 1.5 0 0 0 0 3z"></path>
  </symbol>
  <symbol id="icon_copy" xmlns="http://www.w3.org/2000/svg" viewBox="0 0 200 200">
    <title></title>
    <path d="M145,17.5H90a30.09,30.09,0,0,0-30,30H55a30.09,30.09,0,0,0-30,30v75a30.09,30.09,0,0,0,30,30h55a30.09,30.09,0,0,0,30-30h5a30.09,30.09,0,0,0,30-30v-75a30.09,30.09,0,0,0-30-30Zm-25,135a10,10,0,0,1-10,10H55a10,10,0,0,1-10-10v-75a10,10,0,0,1,10-10h55a10,10,0,0,1,10,10Zm35-30a10,10,0,0,1-10,10h-5v-55a30.09,30.09,0,0,0-30-30H80a10,10,0,0,1,10-10h55a10,10,0,0,1,10,10v75Zm-55,10H65a10,10,0,0,0,0,20h35a10,10,0,0,0,0-20Zm0-30H65a10,10,0,0,0,0,20h35a10,10,0,0,0,0-20Z"></path>
  </symbol>
  <symbol xmlns="http://www.w3.org/2000/svg" viewBox="0 0 32 32" id="icon_profile">
    <title></title>
    <g id="user_people_person_users_man">
      <path d="M23.74,16.18a1,1,0,1,0-1.41,1.42A9,9,0,0,1,25,24c0,1.22-3.51,3-9,3s-9-1.78-9-3a9,9,0,0,1,2.63-6.37,1,1,0,0,0,0-1.41,1,1,0,0,0-1.41,0A10.92,10.92,0,0,0,5,24c0,3.25,5.67,5,11,5s11-1.75,11-5A10.94,10.94,0,0,0,23.74,16.18Z"></path>
      <path d="M16,17a7,7,0,1,0-7-7A7,7,0,0,0,16,17ZM16,5a5,5,0,1,1-5,5A5,5,0,0,1,16,5Z"></path>
    </g>
  </symbol>
  <symbol xmlns="http://www.w3.org/2000/svg" viewBox="0 0 24 24" id="icon_dashboard">
    <path d="M4 13h6a1 1 0 0 0 1-1V4a1 1 0 0 0-1-1H4a1 1 0 0 0-1 1v8a1 1 0 0 0 1 1zm-1 7a1 1 0 0 0 1 1h6a1 1 0 0 0 1-1v-4a1 1 0 0 0-1-1H4a1 1 0 0 0-1 1v4zm10 0a1 1 0 0 0 1 1h6a1 1 0 0 0 1-1v-7a1 1 0 0 0-1-1h-6a1 1 0 0 0-1 1v7zm1-10h6a1 1 0 0 0 1-1V4a1 1 0 0 0-1-1h-6a1 1 0 0 0-1 1v5a1 1 0 0 0 1 1z"></path>
  </symbol>
  <symbol id="current_income" viewBox="0 0 24 24" xmlns="http://www.w3.org/2000/svg">
    <g>
      <path d="M0 0h24v24H0z" fill="none" />
      <path d="M5.671 4.257c3.928-3.219 9.733-2.995 13.4.672 3.905 3.905 3.905 10.237 0 14.142-3.905 3.905-10.237 3.905-14.142 0A9.993 9.993 0 0 1 2.25 9.767l.077-.313 1.934.51a8 8 0 1 0 3.053-4.45l-.221.166 1.017 1.017-4.596 1.06 1.06-4.596 1.096 1.096zM13 6v2h2.5v2H10a.5.5 0 0 0-.09.992L10 11h4a2.5 2.5 0 1 1 0 5h-1v2h-2v-2H8.5v-2H14a.5.5 0 0 0 .09-.992L14 13h-4a2.5 2.5 0 1 1 0-5h1V6h2z" />
    </g>
  </symbol>
  <symbol xmlns="http://www.w3.org/2000/svg" viewBox="0 0 576 512" id="icon-eye">
    <path d="M572.52 241.4C518.29 135.59 410.93 64 288 64S57.68 135.64 3.48 241.41a32.35 32.35 0 0 0 0 29.19C57.71 376.41 165.07 448 288 448s230.32-71.64 284.52-177.41a32.35 32.35 0 0 0 0-29.19zM288 400a144 144 0 1 1 144-144 143.93 143.93 0 0 1-144 144zm0-240a95.31 95.31 0 0 0-25.31 3.79 47.85 47.85 0 0 1-66.9 66.9A95.78 95.78 0 1 0 288 160z"></path>
  </symbol>
  <symbol xmlns="http://www.w3.org/2000/svg" viewBox="0 0 640 512" id="icon-eye-slash">
    <path d="M320 400c-75.85 0-137.25-58.71-142.9-133.11L72.2 185.82c-13.79 17.3-26.48 35.59-36.72 55.59a32.35 32.35 0 0 0 0 29.19C89.71 376.41 197.07 448 320 448c26.91 0 52.87-4 77.89-10.46L346 397.39a144.13 144.13 0 0 1-26 2.61zm313.82 58.1l-110.55-85.44a331.25 331.25 0 0 0 81.25-102.07 32.35 32.35 0 0 0 0-29.19C550.29 135.59 442.93 64 320 64a308.15 308.15 0 0 0-147.32 37.7L45.46 3.37A16 16 0 0 0 23 6.18L3.37 31.45A16 16 0 0 0 6.18 53.9l588.36 454.73a16 16 0 0 0 22.46-2.81l19.64-25.27a16 16 0 0 0-2.82-22.45zm-183.72-142l-39.3-30.38A94.75 94.75 0 0 0 416 256a94.76 94.76 0 0 0-121.31-92.21A47.65 47.65 0 0 1 304 192a46.64 46.64 0 0 1-1.54 10l-73.61-56.89A142.31 142.31 0 0 1 320 112a143.92 143.92 0 0 1 144 144c0 21.63-5.29 41.79-13.9 60.11z"></path>
  </symbol>
<symbol version="1.1" xml:space="preserve" xmlns="http://www.w3.org/2000/svg" xmlns:xlink="http://www.w3.org/1999/xlink" viewBox="0 0 512 512" id="icon-bitcoin">
    <g id="_x34_5-bitcoin">
      <g>
        <path d="M362.199,243.996c24.913-12.74,40.767-35.39,37.088-73.044    c-4.814-51.526-47.131-68.796-103.188-73.607V26.001H252.5v69.362c-11.325,0-22.932,0.283-34.539,0.564V26.001h-43.6v71.344    c-16.029,0.484-34.698,0.248-87.479,0v46.43c34.423-0.609,52.483-2.821,56.623,19.251V358.37    c-2.629,17.515-16.643,14.991-47.846,14.438l-8.775,51.809c79.495,0,87.479,0.284,87.479,0.284v61.099h43.601v-60.25    c11.888,0.285,23.498,0.285,34.539,0.285v59.965h43.599V424.9c73.043-3.964,121.871-22.366,128.384-91.16    C429.579,278.535,403.531,253.903,362.199,243.996z M218.811,146.889c24.631,0,101.639-7.643,101.639,43.599    c0,48.979-77.007,43.315-101.639,43.315V146.889z M218.811,373.093v-95.691c29.445,0,119.608-8.209,119.608,47.847    C338.418,379.321,248.255,373.093,218.811,373.093L218.811,373.093z"></path>
      </g>
    </g>
    <g id="Layer_1"></g>
  </symbol>
  <symbol version="1.1" xmlns="http://www.w3.org/2000/svg" xmlns:xlink="http://www.w3.org/1999/xlink" viewBox="0 0 60 60" id="icon-SM">
    <title></title>
    <desc></desc>
    <defs></defs>
    <g  id="People" stroke="none" stroke-width="1">
      <g id="Icon-26">
        <path d="M23.707,24.293 C23.316,23.902 22.684,23.902 22.293,24.293 L12.293,34.293 C11.902,34.684 11.902,35.316 12.293,35.707 C12.488,35.902 12.744,36 13,36 C13.256,36 13.512,35.902 13.707,35.707 L23,26.414 L30.293,33.707 C30.684,34.098 31.316,34.098 31.707,33.707 L46,19.414 L46,23 C46,23.553 46.448,24 47,24 C47.552,24 48,23.553 48,23 L48,17 C48,16.87 47.974,16.74 47.923,16.618 C47.821,16.373 47.626,16.179 47.382,16.077 C47.26,16.026 47.13,16 47,16 L41,16 C40.448,16 40,16.447 40,17 C40,17.553 40.448,18 41,18 L44.586,18 L31,31.586 L23.707,24.293 Z M33.707,54.293 C33.316,53.902 32.684,53.902 32.293,54.293 C31.902,54.684 31.902,55.316 32.293,55.707 L36.293,59.707 C36.488,59.902 36.744,60 37,60 C37.256,60 37.512,59.902 37.707,59.707 C38.098,59.316 38.098,58.684 37.707,58.293 L33.707,54.293 Z M30,48 C29.448,48 29,48.447 29,49 L29,51.586 L22.293,58.293 C21.902,58.684 21.902,59.316 22.293,59.707 C22.488,59.902 22.744,60 23,60 C23.256,60 23.512,59.902 23.707,59.707 L30.707,52.707 C30.894,52.52 31,52.266 31,52 L31,49 C31,48.447 30.552,48 30,48 L30,48 Z M60,3 L60,7 C60,7.553 59.552,8 59,8 L58,8 L58,41 C58,43.757 55.757,46 53,46 L7,46 C4.243,46 2,43.757 2,41 L2,11 C2,10.447 2.448,10 3,10 C3.552,10 4,10.447 4,11 L4,41 C4,42.654 5.346,44 7,44 L53,44 C54.654,44 56,42.654 56,41 L56,7 C56,6.447 56.448,6 57,6 L58,6 L58,4 L2,4 L2,6 L53,6 C53.552,6 54,6.447 54,7 C54,7.553 53.552,8 53,8 L1,8 C0.448,8 0,7.553 0,7 L0,3 C0,2.447 0.448,2 1,2 L29,2 L29,1 C29,0.447 29.448,0 30,0 C30.552,0 31,0.447 31,1 L31,2 L59,2 C59.552,2 60,2.447 60,3 L60,3 Z" id="presentation-arrow"></path>
      </g>
    </g>
  </symbol>
</svg>